<svg xmlns="http://www.w3.org/2000/svg" width="228" height="50" fill="none"><g clip-path="url(#a)"><rect width="50" height="50" fill="#000" rx="10"/><g filter="url(#b)"><path fill="#000" d="M57.52 25.871c0 13.591-19.567 27.588-33.158 27.588C10.771 53.46-.247 42.441-.247 28.85c0-13.591 8.816-48.312 22.407-48.312 2.689 0 6.385.497 10.06 1.748C41.86-14.432 49.022-5.267 52.805 4.19c3.209 8.02 4.714 17.217 4.714 21.682Z"/><path fill="url(#c)" d="M57.52 25.871c0 13.591-19.567 27.588-33.158 27.588C10.771 53.46-.247 42.441-.247 28.85c0-13.591 8.816-48.312 22.407-48.312 2.689 0 6.385.497 10.06 1.748C41.86-14.432 49.022-5.267 52.805 4.19c3.209 8.02 4.714 17.217 4.714 21.682Z"/><g filter="url(#d)"><circle cx="16.468" cy="41.032" r="22.357" fill="url(#e)" transform="rotate(94.295 16.468 41.032)"/></g><g style="mix-blend-mode:color-dodge"><path fill="#000" d="M57.786 22.333c0 13.59-19.566 27.588-33.157 27.588-13.592 0-24.61-11.018-24.61-24.61C.02 11.722 8.837-23 22.428-23c2.688 0 6.384.497 10.059 1.748C42.127-17.971 49.29-8.806 53.072.65c3.209 8.021 4.714 17.218 4.714 21.683Z"/><path fill="url(#f)" d="M57.786 22.333c0 13.59-19.566 27.588-33.157 27.588-13.592 0-24.61-11.018-24.61-24.61C.02 11.722 8.837-23 22.428-23c2.688 0 6.384.497 10.059 1.748C42.127-17.971 49.29-8.806 53.072.65c3.209 8.021 4.714 17.218 4.714 21.683Z"/></g></g><g clip-path="url(#g)"><path fill="#fff" fill-rule="evenodd" d="m8.5 8.5 5.516 1.984v1.892L8.5 14.366v-1.633l3.808-1.287L8.5 10.16V8.5Zm15.215 8.873H16.5V16h7.215v1.373Z" clip-rule="evenodd"/><g filter="url(#h)"><rect width="49" height="49" x=".5" y=".5" stroke="#fff" stroke-opacity=".06" rx="9.5"/></g></g></g><mask id="i" width="161" height="31" x="66" y="10" maskUnits="userSpaceOnUse" style="mask-type:alpha"><path fill="#fff" d="M66 22.926c0 4.24 1.218 7.384 3.653 9.43 2.445 2.047 5.788 3.07 10.029 3.07 3.978 0 7.069-.776 9.273-2.33 2.215-1.563 3.353-3.757 3.416-6.58l.016-1.15H85.05l-.016 1.055c.011.903-.351 1.863-1.086 2.881-.734 1.008-2.157 1.512-4.266 1.512-1.9 0-3.36-.52-4.377-1.559-1.018-1.04-1.527-2.729-1.527-5.07v-2.96c0-1.668.509-3.175 1.527-4.518 1.028-1.344 2.477-2.015 4.345-2.015 1.68 0 2.907.482 3.684 1.448.777.966 1.328 1.879 1.653 2.74l.047 1.275h7.337l-.063-1.024c-.546-3.012-1.81-5.284-3.794-6.817C86.541 10.771 83.591 10 79.666 10c-4.146 0-7.463 1.013-9.95 3.039C67.239 15.064 66 18.213 66 22.485v.44ZM95.048 40.606c.514.137 1.128.237 1.842.3a26.37 26.37 0 0 0 2.283.094c2.078 0 3.846-.44 5.305-1.322 1.459-.872 2.756-2.44 3.889-4.708l8.408-15.791h-6.408l-4.424 8.06a3.625 3.625 0 0 0-.41 1.119c-.084.409-.126.918-.126 1.527h-.078a10.96 10.96 0 0 0-.174-1.543 4.033 4.033 0 0 0-.377-1.102l-4.251-8.061h-7.526l8.596 15.523.52.142c-.473.84-1.024 1.36-1.653 1.559-.63.21-1.486.315-2.567.315-.409 0-.866-.037-1.37-.11a22.509 22.509 0 0 1-1.416-.221l-.063 4.22ZM117.31 27.256c0 2.592 1.076 4.602 3.227 6.03 2.163 1.427 5.038 2.14 8.628 2.14 3.495 0 6.198-.587 8.108-1.763 1.911-1.186 2.881-2.76 2.913-4.723l.016-.378h-6.849v.252c-.011.63-.336 1.15-.976 1.559-.63.399-1.685.598-3.165.598-1.616 0-2.797-.273-3.542-.819-.735-.556-1.102-1.39-1.102-2.503v-1.212c0-1.102.378-1.926 1.133-2.472.756-.546 1.932-.819 3.527-.819 1.396 0 2.425.194 3.086.583.672.388 1.018.934 1.039 1.637v.268h6.864l-.047-.473c-.168-2.004-1.181-3.594-3.038-4.77-1.858-1.175-4.519-1.763-7.983-1.763-3.6 0-6.476.719-8.627 2.157-2.142 1.427-3.212 3.432-3.212 6.014v.457ZM142.547 34.97h7.18V10.252h-7.18V34.97ZM152.419 27.256c0 2.55 1.113 4.55 3.338 5.998 2.235 1.448 5.148 2.173 8.738 2.173 3.589 0 6.491-.725 8.706-2.173 2.225-1.448 3.338-3.448 3.338-5.998v-.457c0-2.54-1.113-4.534-3.338-5.983-2.215-1.459-5.117-2.188-8.706-2.188-3.59 0-6.503.73-8.738 2.188-2.225 1.449-3.338 3.443-3.338 5.983v.457Zm7.242-.82c0-1.238.425-2.077 1.276-2.518.86-.452 2.041-.677 3.542-.677s2.676.225 3.527.677c.85.44 1.275 1.28 1.275 2.519v1.196c0 1.302-.42 2.168-1.26 2.598-.839.43-2.02.646-3.542.646-1.522 0-2.708-.216-3.558-.646-.84-.43-1.26-1.29-1.26-2.582v-1.212ZM179.105 34.97h7.132v-9.131a4.793 4.793 0 0 1 1.826-1.685 5.159 5.159 0 0 1 2.52-.63c1.144 0 2.02.231 2.629.693.619.451.929 1.244.929 2.377v8.376h7.132v-8.911c0-2.656-.724-4.54-2.173-5.652-1.448-1.113-3.296-1.67-5.542-1.67-1.721 0-3.217.274-4.487.82-1.27.545-2.225 1.29-2.865 2.235h.015l-.063-2.613h-7.053V34.97ZM203.729 27.24c0 2.56 1.07 4.57 3.212 6.03 2.141 1.448 5.085 2.172 8.832 2.172 2.76 0 5.033-.367 6.817-1.102 1.784-.734 3.018-1.826 3.7-3.275l-5.621-1.952c-.482.536-1.149.987-1.999 1.354-.84.357-1.847.536-3.023.536-1.648 0-2.886-.273-3.716-.82-.818-.555-1.228-1.427-1.228-2.613v-1.165c0-1.186.389-2.052 1.165-2.598.788-.556 1.905-.834 3.354-.834 1.784 0 2.97.262 3.558.787.598.525.903 1.228.913 2.11l-.015-.016h-11.62l.016 2.173h18.531v-1.464c.021-2.467-.95-4.403-2.913-5.81-1.963-1.417-4.697-2.125-8.202-2.125-3.496 0-6.33.735-8.502 2.204-2.173 1.459-3.259 3.448-3.259 5.967v.44Z"/></mask><g mask="url(#i)"><path fill="#000" d="M66 22.697c0 4.24 1.218 7.384 3.653 9.431 2.445 2.047 5.788 3.07 10.029 3.07 3.978 0 7.069-.777 9.273-2.33 2.215-1.564 3.353-3.758 3.416-6.581l.016-1.15H85.05l-.015 1.055c.01.903-.352 1.864-1.087 2.882-.734 1.007-2.157 1.511-4.266 1.511-1.9 0-3.36-.52-4.377-1.559-1.018-1.039-1.527-2.729-1.527-5.07v-2.959c0-1.669.509-3.175 1.527-4.519 1.028-1.343 2.477-2.015 4.345-2.015 1.68 0 2.907.483 3.684 1.449.777.965 1.328 1.878 1.653 2.74l.048 1.274h7.336l-.063-1.023c-.546-3.012-1.81-5.285-3.794-6.817-1.973-1.543-4.923-2.315-8.848-2.315-4.146 0-7.463 1.013-9.95 3.04C67.239 14.835 66 17.984 66 22.255v.441Zm28.985 17.68c.514.137 1.128.237 1.842.3.724.063 1.485.095 2.283.095 2.078 0 3.847-.441 5.305-1.323 1.459-.871 2.756-2.44 3.889-4.707l8.408-15.792h-6.408l-4.424 8.061a3.625 3.625 0 0 0-.41 1.118c-.084.41-.126.918-.126 1.527h-.078a10.96 10.96 0 0 0-.174-1.543 3.999 3.999 0 0 0-.377-1.102l-4.251-8.06h-7.526l8.596 15.523.52.142c-.472.84-1.024 1.359-1.653 1.558-.63.21-1.486.315-2.566.315-.41 0-.866-.037-1.37-.11a22.578 22.578 0 0 1-1.417-.22l-.063 4.219Zm22.199-13.35c0 2.592 1.076 4.602 3.227 6.03 2.163 1.427 5.038 2.141 8.628 2.141 3.495 0 6.198-.588 8.108-1.763 1.911-1.186 2.881-2.76 2.913-4.723l.016-.378h-6.849v.252c-.01.63-.336 1.149-.976 1.558-.63.4-1.685.599-3.165.599-1.616 0-2.797-.273-3.542-.82-.735-.555-1.102-1.39-1.102-2.502v-1.213c0-1.102.378-1.926 1.133-2.472.756-.545 1.932-.818 3.527-.818 1.396 0 2.425.194 3.086.582.672.389 1.018.934 1.039 1.638v.267h6.864l-.047-.472c-.168-2.005-1.181-3.595-3.038-4.77-1.858-1.176-4.519-1.764-7.983-1.764-3.6 0-6.476.72-8.627 2.157-2.142 1.428-3.212 3.432-3.212 6.014v.457Zm25.206 7.715h7.179V10.023h-7.179v24.719Zm9.84-7.715c0 2.55 1.113 4.55 3.338 5.998 2.235 1.449 5.148 2.173 8.738 2.173 3.589 0 6.492-.724 8.706-2.173 2.225-1.448 3.338-3.447 3.338-5.998v-.457c0-2.54-1.113-4.534-3.338-5.982-2.214-1.46-5.117-2.189-8.706-2.189-3.59 0-6.503.73-8.738 2.189-2.225 1.448-3.338 3.442-3.338 5.982v.457Zm7.242-.819c0-1.238.425-2.078 1.276-2.519.86-.451 2.041-.677 3.542-.677s2.676.226 3.527.677c.85.441 1.275 1.28 1.275 2.52v1.196c0 1.301-.42 2.167-1.26 2.598-.839.43-2.02.645-3.542.645-1.522 0-2.708-.215-3.558-.645-.84-.43-1.26-1.291-1.26-2.582v-1.213Zm19.413 8.534h7.132V25.61a4.785 4.785 0 0 1 1.826-1.685 5.155 5.155 0 0 1 2.519-.63c1.144 0 2.021.231 2.629.693.62.452.929 1.244.929 2.378v8.376h7.132V25.83c0-2.655-.724-4.54-2.172-5.652-1.449-1.112-3.296-1.669-5.542-1.669-1.722 0-3.217.273-4.487.82-1.27.545-2.225 1.29-2.866 2.235h.016l-.063-2.614h-7.053v15.792Zm24.592-7.73c0 2.56 1.071 4.57 3.212 6.03 2.141 1.448 5.085 2.172 8.832 2.172 2.761 0 5.033-.367 6.817-1.102 1.785-.735 3.018-1.827 3.7-3.275l-5.621-1.952c-.482.535-1.149.986-1.999 1.354-.84.357-1.847.535-3.023.535-1.648 0-2.886-.273-3.715-.819-.819-.556-1.228-1.427-1.228-2.613v-1.165c0-1.186.388-2.052 1.165-2.598.787-.556 1.905-.834 3.353-.834 1.784 0 2.97.262 3.558.787.598.525.903 1.228.913 2.11l-.015-.016h-11.619l.015 2.172h18.531v-1.464c.021-2.466-.95-4.403-2.913-5.81-1.962-1.416-4.697-2.125-8.202-2.125-3.495 0-6.329.735-8.502 2.204-2.173 1.46-3.259 3.448-3.259 5.967v.441Z"/><g filter="url(#j)"><path fill="#000" d="M172.647 19.3c0 25.906-37.295 52.585-63.201 52.585S62.539 50.884 62.539 24.978c0-25.906 16.804-92.086 42.71-92.086 5.124 0 12.169.947 19.173 3.331 18.378 6.255 32.03 23.724 39.24 41.749 6.116 15.288 8.985 32.817 8.985 41.328Z"/><path fill="url(#k)" d="M172.647 19.3c0 25.906-37.295 52.585-63.201 52.585S62.539 50.884 62.539 24.978c0-25.906 16.804-92.086 42.71-92.086 5.124 0 12.169.947 19.173 3.331 18.378 6.255 32.03 23.724 39.24 41.749 6.116 15.288 8.985 32.817 8.985 41.328Z"/><g filter="url(#l)"><circle cx="94.399" cy="48.197" r="42.614" fill="url(#m)" transform="rotate(94.295 94.399 48.197)"/></g><g style="mix-blend-mode:color-dodge"><path fill="#000" d="M173.154 12.555c0 25.906-37.295 52.585-63.201 52.585s-46.907-21-46.907-46.907c0-25.906 16.804-92.086 42.71-92.086 5.124 0 12.169.947 19.174 3.331 18.377 6.255 32.029 23.725 39.239 41.75 6.116 15.288 8.985 32.817 8.985 41.327Z"/><path fill="url(#n)" d="M173.154 12.555c0 25.906-37.295 52.585-63.201 52.585s-46.907-21-46.907-46.907c0-25.906 16.804-92.086 42.71-92.086 5.124 0 12.169.947 19.174 3.331 18.377 6.255 32.029 23.725 39.239 41.75 6.116 15.288 8.985 32.817 8.985 41.327Z"/></g></g><g filter="url(#o)"><path fill="#000" d="M256.933 31.152c0 25.906-37.295 52.586-63.201 52.586s-46.907-21.001-46.907-46.907c0-25.907 16.804-92.087 42.71-92.087 5.124 0 12.169.948 19.174 3.332 18.377 6.255 32.029 23.724 39.239 41.748 6.116 15.29 8.985 32.818 8.985 41.328Z"/><path fill="url(#p)" d="M256.933 31.152c0 25.906-37.295 52.586-63.201 52.586s-46.907-21.001-46.907-46.907c0-25.907 16.804-92.087 42.71-92.087 5.124 0 12.169.948 19.174 3.332 18.377 6.255 32.029 23.724 39.239 41.748 6.116 15.29 8.985 32.818 8.985 41.328Z"/><g filter="url(#q)"><circle cx="178.685" cy="60.05" r="42.614" fill="url(#r)" transform="rotate(94.295 178.685 60.05)"/></g><g style="mix-blend-mode:color-dodge"><path fill="#000" d="M257.441 24.408c0 25.906-37.295 52.585-63.201 52.585s-46.907-21-46.907-46.907C147.333 4.18 164.137-62 190.043-62c5.124 0 12.169.947 19.173 3.331 18.378 6.255 32.03 23.725 39.24 41.749 6.116 15.289 8.985 32.818 8.985 41.328Z"/><path fill="url(#s)" d="M257.441 24.408c0 25.906-37.295 52.585-63.201 52.585s-46.907-21-46.907-46.907C147.333 4.18 164.137-62 190.043-62c5.124 0 12.169.947 19.173 3.331 18.378 6.255 32.03 23.725 39.24 41.749 6.116 15.289 8.985 32.818 8.985 41.328Z"/></g></g></g><defs><filter id="b" width="90.098" height="112.812" x="-19.101" y="-36.211" color-interpolation-filters="sRGB" filterUnits="userSpaceOnUse"><feFlood flood-opacity="0" result="BackgroundImageFix"/><feBlend in="SourceGraphic" in2="BackgroundImageFix" result="shape"/><feGaussianBlur result="effect1_foregroundBlur_24_3110" stdDeviation="6.606"/></filter><filter id="d" width="53.68" height="53.68" x="-10.372" y="14.192" color-interpolation-filters="sRGB" filterUnits="userSpaceOnUse"><feFlood flood-opacity="0" result="BackgroundImageFix"/><feBlend in="SourceGraphic" in2="BackgroundImageFix" result="shape"/><feGaussianBlur result="effect1_foregroundBlur_24_3110" stdDeviation="2.241"/></filter><filter id="h" width="73.2" height="73.2" x="-11.6" y="-11.6" color-interpolation-filters="sRGB" filterUnits="userSpaceOnUse"><feFlood flood-opacity="0" result="BackgroundImageFix"/><feGaussianBlur in="BackgroundImageFix" stdDeviation="5.8"/><feComposite in2="SourceAlpha" operator="in" result="effect1_backgroundBlur_24_3110"/><feBlend in="SourceGraphic" in2="effect1_backgroundBlur_24_3110" result="shape"/></filter><filter id="j" width="171.734" height="215.029" x="26.602" y="-99.034" color-interpolation-filters="sRGB" filterUnits="userSpaceOnUse"><feFlood flood-opacity="0" result="BackgroundImageFix"/><feBlend in="SourceGraphic" in2="BackgroundImageFix" result="shape"/><feGaussianBlur result="effect1_foregroundBlur_24_3110" stdDeviation="12.591"/></filter><filter id="l" width="102.318" height="102.318" x="43.24" y="-2.962" color-interpolation-filters="sRGB" filterUnits="userSpaceOnUse"><feFlood flood-opacity="0" result="BackgroundImageFix"/><feBlend in="SourceGraphic" in2="BackgroundImageFix" result="shape"/><feGaussianBlur result="effect1_foregroundBlur_24_3110" stdDeviation="4.272"/></filter><filter id="o" width="171.734" height="215.029" x="110.888" y="-87.182" color-interpolation-filters="sRGB" filterUnits="userSpaceOnUse"><feFlood flood-opacity="0" result="BackgroundImageFix"/><feBlend in="SourceGraphic" in2="BackgroundImageFix" result="shape"/><feGaussianBlur result="effect1_foregroundBlur_24_3110" stdDeviation="12.591"/></filter><filter id="q" width="102.318" height="102.318" x="127.526" y="8.891" color-interpolation-filters="sRGB" filterUnits="userSpaceOnUse"><feFlood flood-opacity="0" result="BackgroundImageFix"/><feBlend in="SourceGraphic" in2="BackgroundImageFix" result="shape"/><feGaussianBlur result="effect1_foregroundBlur_24_3110" stdDeviation="4.272"/></filter><radialGradient id="c" cx="0" cy="0" r="1" gradientTransform="rotate(-55.212 47.369 13.085) scale(50.6246 40.104)" gradientUnits="userSpaceOnUse"><stop stop-color="#00EDD2"/><stop offset=".207" stop-color="#19BCF6"/><stop offset=".432" stop-color="#6A4BFE"/><stop offset="1"/></radialGradient><radialGradient id="f" cx="0" cy="0" r="1" gradientTransform="rotate(-55.212 44.119 11.061) scale(50.6246 40.104)" gradientUnits="userSpaceOnUse"><stop stop-color="#00EDD2"/><stop offset=".207" stop-color="#19BCF6"/><stop offset=".432" stop-color="#6A4BFE"/><stop offset="1"/></radialGradient><radialGradient id="k" cx="0" cy="0" r="1" gradientTransform="rotate(-55.212 93.097 -50.313) scale(96.4948 76.4417)" gradientUnits="userSpaceOnUse"><stop stop-color="#00EDD2"/><stop offset=".207" stop-color="#19BCF6"/><stop offset=".432" stop-color="#6A4BFE"/><stop offset="1"/></radialGradient><radialGradient id="n" cx="0" cy="0" r="1" gradientTransform="rotate(-55.212 86.902 -54.17) scale(96.4948 76.4417)" gradientUnits="userSpaceOnUse"><stop stop-color="#00EDD2"/><stop offset=".207" stop-color="#19BCF6"/><stop offset=".432" stop-color="#6A4BFE"/><stop offset="1"/></radialGradient><radialGradient id="p" cx="0" cy="0" r="1" gradientTransform="rotate(-55.212 146.573 -124.978) scale(96.4948 76.4417)" gradientUnits="userSpaceOnUse"><stop stop-color="#00EDD2"/><stop offset=".207" stop-color="#19BCF6"/><stop offset=".432" stop-color="#6A4BFE"/><stop offset="1"/></radialGradient><radialGradient id="s" cx="0" cy="0" r="1" gradientTransform="rotate(-55.212 140.378 -128.835) scale(96.4948 76.4417)" gradientUnits="userSpaceOnUse"><stop stop-color="#00EDD2"/><stop offset=".207" stop-color="#19BCF6"/><stop offset=".432" stop-color="#6A4BFE"/><stop offset="1"/></radialGradient><linearGradient id="e" x1="11.706" x2="16.468" y1="25.422" y2="63.388" gradientUnits="userSpaceOnUse"><stop stop-color="#0CE3AF"/><stop offset=".698" stop-color="#0CD6E3" stop-opacity="0"/></linearGradient><linearGradient id="m" x1="85.322" x2="94.399" y1="18.444" y2="90.811" gradientUnits="userSpaceOnUse"><stop stop-color="#0CE3AF"/><stop offset=".698" stop-color="#0CD6E3" stop-opacity="0"/></linearGradient><linearGradient id="r" x1="169.608" x2="178.685" y1="30.296" y2="102.664" gradientUnits="userSpaceOnUse"><stop stop-color="#0CE3AF"/><stop offset=".698" stop-color="#0CD6E3" stop-opacity="0"/></linearGradient><clipPath id="a"><rect width="50" height="50" fill="#fff" rx="10"/></clipPath><clipPath id="g"><rect width="50" height="50" fill="#fff" rx="10"/></clipPath></defs></svg>
